<svg xmlns="http://www.w3.org/2000/svg" xmlns:xlink="http://www.w3.org/1999/xlink" id="Layer_1" data-name="Layer 1" viewBox="0 0 1245 205" width="100%" height="100%" preserveAspectRatio="xMidYMid meet" onload="">

    <defs>
      <style>
      .cls-1 {
        fill:#f59e00;
      }
      .cls-2 {
        fill:#7a1331;
      }
      #Dots circle {
        fill:#1e9a64;
      }
      #Lines {
        -webkit-animation:show-animate 0s forwards;
        -moz-animation:show-animate 0s forwards;
        -ms-animation:show-animate 0s forwards;
        -o-animation:show-animate 0s forwards;
        animation: show-animate 0s forwards;
        -webkit-animation-delay: 1s;
        -moz-animation-delay: 1s;
        -ms-animation-delay: 1s;
        -o-animation-delay: 1s;
        animation-delay: 1s;
        opacity: 0;
      }

      @-webkit-keyframes show-animate {
        from {
        opacity: 0;
        }
        to {
        opacity: 1;
        }
      }
      @-moz-keyframes show-animate {
        from {
        opacity: 0;
        }
        to {
        opacity: 1;
        }
      }
      @-o-keyframes show-animate {
        from {
        opacity: 0;
        }
        to {
        opacity: 1;
        }
      }
      @keyframes show-animate {
        from {
        opacity: 0;
        }
        to {
        opacity: 1;
        }
      }

      #Lines path {
        animation: draw 2.5s linear forwards;
        -webkit-animation:draw 2.5s linear forwards;
        -moz-animation:draw 2.5s linear forwards;
        -ms-animation:draw 2.5s linear forwards;
        -o-animation:draw 2.5s linear forwards;
        -webkit-animation-delay: 1s;
        -moz-animation-delay: 1s;
        -ms-animation-delay: 1s;
        -o-animation-delay: 1s;
        animation-delay: 1s;
        stroke-dasharray: 3000,2000;
        stroke-dashoffset: 3000;
      }


      @-webkit-keyframes draw {
        to {
            stroke-dashoffset: 0;
        }
      }
      @-moz-keyframes draw {
        to {
            stroke-dashoffset: 0;
        }
      }
      @-o-keyframes draw {
        to {
            stroke-dashoffset: 0;
        }
      }
      @keyframes draw {
        to {
            stroke-dashoffset: 0;
        }
      }

      #Years_Text {
        -webkit-animation: 2s ease-out 0s 1 textSlideInFromRight;
                animation: 2s ease-out 0s 1 textSlideInFromRight;
      }
        .dot-1 {
          -webkit-animation: 1s ease-out 0s 1 slideInFromLeft;
                  animation: 1s ease-out 0s 1 slideInFromLeft;
        }
        .dot-2 {
          -webkit-animation: 1s ease-out 0s 1 slideInFromCenterToLeft;
                  animation: 1s ease-out 0s 1 slideInFromCenterToLeft;
        }
        .dot-3 {
          -webkit-animation: 1s ease-out 0s 1 slideInFromCenterToLeft;
                  animation: 1s ease-out 0s 1 slideInFromCenterToLeft;
        }
        .dot-4 {
          -webkit-animation: 1s ease-out 0s 1 slideInFromCenterToLeft;
                  animation: 1s ease-out 0s 1 slideInFromCenterToLeft;
        }
        .dot-5 {
          -webkit-animation: 1s ease-out 0s 1 slideInFromLeft;
                  animation: 1s ease-out 0s 1 slideInFromLeft;
        }
        .dot-6 {
          -webkit-animation: 1s ease-out 0s 1 slideInFromLeft;
                  animation: 1s ease-out 0s 1 slideInFromLeft;
        }
        .dot-7 {
          -webkit-animation: 1s ease-out 0s 1 slideInFromCenterToRight;
                  animation: 1s ease-out 0s 1 slideInFromCenterToRight;
        }
        .dot-8 {
          -webkit-animation: 1s ease-out 0s 1 slideInFromCenterToRight;
                  animation: 1s ease-out 0s 1 slideInFromCenterToRight;
        }
        .dot-9 {
          -webkit-animation: 1s ease-out 0s 1 slideInFromTop;
                  animation: 1s ease-out 0s 1 slideInFromTop;
        }
        .dot-10 {
          -webkit-animation: 1s ease-out 0s 1 slideInFromLeft;
                  animation: 1s ease-out 0s 1 slideInFromLeft;
        }
        .dot-11 {
          -webkit-animation: 1s ease-out 0s 1 slideInFromRight;
                  animation: 1s ease-out 0s 1 slideInFromRight;
        }
        .dot-12 {
          -webkit-animation: 1s ease-out 0s 1 slideInFromRight;
                  animation: 1s ease-out 0s 1 slideInFromRight;
        }


        @-webkit-keyframes textSlideInFromRight {
          0% {
            -webkit-transform: translate(+10%, +10%);
                    transform: translate(+10%, +10%);
          }
          100% {
            -webkit-transform: translate(0, 0);
                    transform: translate(0, 0);

          }
        }

        @keyframes textSlideInFromRight {
          0% {
            -webkit-transform: translate(+10%, +10%);
                    transform: translate(+10%, +10%);
          }
          100% {
            -webkit-transform: translate(0, 0);
                    transform: translate(0, 0);

          }
        }

        @-webkit-keyframes slideInFromLeft {
          0% {
            -webkit-transform: translate(-20%, -20%);
                    transform: translate(-20%, -20%);
          }
          100% {
            -webkit-transform: translate(0, 0);
                    transform: translate(0, 0);

          }
        }

        @keyframes slideInFromLeft {
          0% {
            -webkit-transform: translate(-20%, -20%);
                    transform: translate(-20%, -20%);
          }
          100% {
            -webkit-transform: translate(0, 0);
                    transform: translate(0, 0);

          }
        }
        @-webkit-keyframes slideInFromRight {
          0% {
            -webkit-transform: translate(+20%, +20%);
                    transform: translate(+20%, +20%);
          }
          100% {
            -webkit-transform: translate(0, 0);
                    transform: translate(0, 0);

          }
        }
        @keyframes slideInFromRight {
          0% {
            -webkit-transform: translate(+20%, +20%);
                    transform: translate(+20%, +20%);
          }
          100% {
            -webkit-transform: translate(0, 0);
                    transform: translate(0, 0);

          }
        }
        @-webkit-keyframes slideInFromCenterToRight {
          0% {
            -webkit-transform: translate(-5%, +50%);
                    transform: translate(-5%, +50%);
          }
          100% {
            -webkit-transform: translate(0, 0);
                    transform: translate(0, 0);

          }
        }
        @keyframes slideInFromCenterToRight {
          0% {
            -webkit-transform: translate(-5%, +50%);
                    transform: translate(-5%, +50%);
          }
          100% {
            -webkit-transform: translate(0, 0);
                    transform: translate(0, 0);

          }
        }
        @-webkit-keyframes slideInFromCenterToLeft {
          0% {
            -webkit-transform: translate(+15%, +30%);
                    transform: translate(+15%, +30%);
          }
          100% {
            -webkit-transform: translate(0, 0);
                    transform: translate(0, 0);

          }
        }
        @keyframes slideInFromCenterToLeft {
          0% {
            -webkit-transform: translate(+15%, +30%);
                    transform: translate(+15%, +30%);
          }
          100% {
            -webkit-transform: translate(0, 0);
                    transform: translate(0, 0);

          }
        }
        @-webkit-keyframes slideInFromTop {
          0% {
            -webkit-transform: translate(-5%, -5%);
                    transform: translate(-5%, -5%);
          }
          100% {
            -webkit-transform: translate(0, 0);
                    transform: translate(0, 0);

          }
        }
        @keyframes slideInFromTop {
          0% {
            -webkit-transform: translate(-5%, -5%);
                    transform: translate(-5%, -5%);
          }
          100% {
            -webkit-transform: translate(0, 0);
                    transform: translate(0, 0);

          }
        }
        </style>
    </defs>
    <title>Techship-10-years-horizontal-rgb</title>
    <path class="cls-1" d="M137.89,3.93l-4.38,30.14H85.62l-17.74,118H30.25l17.42-118H0L4.6,3.93Z"/>
    <path class="cls-1" d="M212.66,91a88.7,88.7,0,0,1-1.5,15.93H142.32q0,22.56,22.13,22.56A69.82,69.82,0,0,0,184.17,127q8.72-2.56,20.79-7.48l-5.45,26.72a133.24,133.24,0,0,1-18.33,6.2,78.5,78.5,0,0,1-17.37,1.6q-22.23,0-35-8.23t-17.31-19.66a60.36,60.36,0,0,1-4.6-22.67,64.83,64.83,0,0,1,7.64-31,59,59,0,0,1,21.17-22.66,56.72,56.72,0,0,1,30.52-8.39,49.86,49.86,0,0,1,23.25,5.45,40.58,40.58,0,0,1,16.83,16.68Q212.65,74.69,212.66,91Zm-34.42-3.31c0-.5,0-1,0-1.44s.06-1.16.06-2.09q0-18.37-12.72-18.38a14.24,14.24,0,0,0-12.14,6,70.21,70.21,0,0,0-8.28,15.87Z"/>
    <path class="cls-1" d="M327.21,45.3,322.4,79q-10.47-3.42-13.14-4a53.12,53.12,0,0,0-12.72-1.5q-12.3,0-20.1,4.71a29.32,29.32,0,0,0-11.33,11.49c-2.35,4.53-3.53,8.6-3.53,12.24a23.28,23.28,0,0,0,4.92,13.89q4.92,6.73,19.77,6.74a54.51,54.51,0,0,0,15.08-2.14,141.46,141.46,0,0,0,20-8L315.67,149q-6.74,2.15-10.85,3.1a70,70,0,0,1-9,1.44q-4.86.48-10,.48-35.07,0-47.84-16.83t-12.77-35.65q0-12,6.2-25.81T253.19,51.6Q268.75,41.34,295,41.34A142.88,142.88,0,0,1,327.21,45.3Z"/>
    <path class="cls-1" d="M450.43,73.73a103.69,103.69,0,0,1-1.61,15.93l-9.19,62.42H404l10-67a23.82,23.82,0,0,0,.22-2.67,15.28,15.28,0,0,0-2.3-8.34,7.64,7.64,0,0,0-6.9-3.64q-5.24,0-10.9,3.91a125.59,125.59,0,0,0-14.32,12.13l-9.62,65.63h-35.7L356.68,3.93H392L384.26,56A109.1,109.1,0,0,1,401.9,45a41.27,41.27,0,0,1,17.85-3.69q12.08,0,18.87,5.4a27.49,27.49,0,0,1,9.29,12.83A44.05,44.05,0,0,1,450.43,73.73Z"/>
    <path class="cls-2" d="M545.88,51.39,543.21,77a136.67,136.67,0,0,0-17.48-7.16q-9.57-3.21-15.12-3.21-7.28,0-7.27,5a7.53,7.53,0,0,0,2.19,5.24,49,49,0,0,0,7.32,5.93q5.13,3.59,9.19,7,10.8,9,14.49,16.14a29.56,29.56,0,0,1,3.69,13.47,31.72,31.72,0,0,1-4.71,16.09,35.55,35.55,0,0,1-14.27,13.25Q511.67,154,497.89,154a88.1,88.1,0,0,1-15.56-2,78.54,78.54,0,0,1-21-7.65l4.6-24.9q11.86,4.81,18.27,7a42.1,42.1,0,0,0,13.69,2.19,10.22,10.22,0,0,0,6.78-2,5.92,5.92,0,0,0,2.41-4.6c0-2.13-1.12-4.22-3.37-6.25s-6.64-5.47-13.2-10.31a85.93,85.93,0,0,1-15-14.38,26.44,26.44,0,0,1-6-16.94q0-12.94,10.53-22.88t30.63-9.94A58.69,58.69,0,0,1,529.15,44,105.48,105.48,0,0,1,545.88,51.39Z"/>
    <path class="cls-2" d="M671.41,73.73a104.75,104.75,0,0,1-1.6,15.93l-9.2,62.42H625l10.05-67a23.36,23.36,0,0,0,.21-2.67,15.28,15.28,0,0,0-2.3-8.34,7.62,7.62,0,0,0-6.89-3.64q-5.24,0-10.91,3.91a126.47,126.47,0,0,0-14.32,12.13l-9.62,65.63h-35.7L577.66,3.93h35.28L605.24,56A109.54,109.54,0,0,1,622.88,45a41.27,41.27,0,0,1,17.85-3.69q12.07,0,18.87,5.4a27.58,27.58,0,0,1,9.3,12.83A44.3,44.3,0,0,1,671.41,73.73Z"/>
    <path class="cls-2" d="M734.13,43.26l-15.5,108.82H682.5L698,43.26Zm2-24.9a15.75,15.75,0,0,1-4.81,11.54,16.39,16.39,0,0,1-23.25,0,15.68,15.68,0,0,1-4.87-11.49,15.81,15.81,0,0,1,4.87-11.6,16.1,16.1,0,0,1,19.72-2.62,16.62,16.62,0,0,1,6.09,6.09A15.88,15.88,0,0,1,736.16,18.36Z"/>
    <path class="cls-2" d="M870.52,91.9A67.3,67.3,0,0,1,863.25,123a55.87,55.87,0,0,1-21,22.6Q828.51,154,810.77,154a47.82,47.82,0,0,1-9.89-1,94.74,94.74,0,0,1-9.78-2.67l-7.91,51.2H747.7l17.1-113.2L750,106.12a37.81,37.81,0,0,1-3.05,3.1,3.62,3.62,0,0,1-2.41.85c-2.2,0-3.31-1.39-3.31-4.17q0-5,3.85-12.72a79.49,79.49,0,0,1,8.66-13.79,139.56,139.56,0,0,1,14.86-15.28L774.64,24h35.27L807,43.26A43.78,43.78,0,0,1,814.51,42a46.43,46.43,0,0,1,7.7-.64,53.46,53.46,0,0,1,21.11,3.9,40.59,40.59,0,0,1,15.17,11,47.34,47.34,0,0,1,9,16.09A62.15,62.15,0,0,1,870.52,91.9Zm-37.2-.43q0-10.68-5.07-17.63t-16.84-7a30.89,30.89,0,0,0-7.91,1l-8.66,56.65a32,32,0,0,0,8.45,1.07q10.89,0,17.63-5.18a28.35,28.35,0,0,0,9.57-13A46.3,46.3,0,0,0,833.32,91.47Z"/>

    <!-- Years Text -->
    <g id="Years_Text">
        <path class="cls-2" d="M1236.2156265297872,143.01459625638262h-5.569999999999709a0.9400000000000006,0.9400000000000006,0,0,0,-0.5100000000002183,0.12999999999999545l-9.659999999999854,5.439999999999998v-3.8500000000000227c2.380000000000109,-1.2099999999999795,5.529999999999745,-2.7899999999999636,7.239999999999782,-3.589999999999975c-1.6399999999998727,-0.6800000000000068,-5,-2.3899999999999864,-7.239999999999782,-3.580000000000041v-3.569999999999993l9.61999999999989,5.509999999999991a1,1,0,0,0,0.5,0.11000000000001364h5.619999999999891Z" transform="matrix(1.35279 0 0 1.35279 -431.154 -31.2761)"/>
        <path class="cls-2" d="M1229.435626529787,113.44986102895608v7.540000000000006h4v-8.320000000000007l2.7899999999999636,0.4200000000000017v11.209999999999994h-15.739999999999782v-11.170000000000002h2.7899999999999636v7.859999999999999h3.3599999999996726v-7.540000000000006Z" transform="matrix(1.35279 0 0 1.35279 -431.154 -31.2761)"/>
        <path class="cls-2" d="M1232.585626529787,98.84217875604422l3.630000000000109,1.2099999999999937v3.3599999999999994l-15.739999999999782,-5.340000000000003v-4.269999999999996l15.739999999999782,-5.599999999999994v3.5900000000000034l-3.630000000000109,1.299999999999983ZM1229.7956265297871,93.84217875604422c-3.3299999999999272,1.1200000000000045,-5.460000000000036,1.8299999999999983,-6.869999999999891,2.2099999999999937v0c1.550000000000182,0.39000000000000057,4,1.1599999999999966,6.869999999999891,2Z" transform="matrix(1.35279 0 0 1.35279 -431.154 -31.2761)"/>
        <path class="cls-2" d="M1229.9056265297872,73.79039057410297h6.309999999999945v3.3400000000000034h-15.740000000000236v-6.920000000000002c0,-3.430000000000007,1.8699999999998909,-5.280000000000001,4.320000000000164,-5.280000000000001a3.7800000000000002,3.7800000000000002,0,0,1,3.7199999999998,2.280000000000001c0.3000000000001819,-0.769999999999996,1.099999999999909,-2,3.930000000000291,-2h0.7799999999997453a11.79,11.79,0,0,0,3,-0.23000000000000398v3.240000000000009a11.08,11.08,0,0,1,-3.5399999999999636,0.3199999999999932h-0.2300000000000182c-1.7100000000000364,0,-2.5399999999999636,0.4399999999999977,-2.5399999999999636,3ZM1227.1956265297872,73.79039057410297v-2.8499999999999943c0,-1.8499999999999943,-0.7100000000000364,-2.5799999999999983,-2,-2.5799999999999983s-2,0.8400000000000034,-2,2.510000000000005v2.9200000000000017Z" transform="matrix(1.35279 0 0 1.35279 -431.154 -31.2761)"/>
        <path class="cls-2" d="M1231.605626529787,50.965655346676414c1.5700000000001637,-0.35999999999999943,2.2800000000002,-1.4799999999999898,2.2800000000002,-3.3100000000000023s-0.7300000000000182,-2.5999999999999943,-1.8699999999998909,-2.5999999999999943c-1.3099999999999454,0,-1.849999999999909,0.75,-2.4700000000002547,3.450000000000003c-1,4.289999999999992,-2.5799999999999272,5.340000000000003,-4.710000000000036,5.340000000000003c-2.7399999999997817,0,-4.589999999999691,-2,-4.589999999999691,-5.780000000000001c0,-4.180000000000007,2.2399999999997817,-5.840000000000003,4.549999999999727,-6.070000000000007v3.4200000000000017c-1,0.18999999999999773,-2,0.710000000000008,-2,2.740000000000009c0,1.3999999999999915,0.5700000000001637,2.219999999999999,1.6900000000000546,2.219999999999999s1.550000000000182,-0.6599999999999966,2.119999999999891,-3.219999999999999c1.099999999999909,-4.569999999999993,2.7899999999999636,-5.570000000000007,5,-5.570000000000007c2.849999999999909,0,4.8400000000001455,2.1700000000000017,4.8400000000001455,6.320000000000007s-2,6.1299999999999955,-4.8400000000001455,6.489999999999995Z" transform="matrix(1.35279 0 0 1.35279 -431.154 -31.2761)"/>
    </g>

  <g id="Dots">
      <circle class="dot-1" cx="941.030029296875" cy="152.68432285274264" r="7"/>
      <circle class="dot-2" cx="944.0499877929688" cy="28.303936500203573" r="7"/>
      <circle class="dot-3" cx="956.9600219726562" cy="68.2169308849692" r="7"/>
      <circle class="dot-4" cx="949.219970703125" cy="48.61431552852389" r="7"/>
      <circle class="dot-5" cx="1014.77001953125" cy="171.344326514852" r="7"/>
      <circle class="dot-6" cx="1049.800048828125" cy="190.94672824825045" r="7"/>
      <circle class="dot-7" cx="1113.3299560546875" cy="11.795954246175253" r="7"/>
      <circle class="dot-8" cx="1136.239990234375" cy="11.607174415242635" r="7"/>
      <circle class="dot-9" cx="1105.56005859375" cy="171.9147305675864" r="7"/>
      <circle class="dot-10" cx="1128.72998046875" cy="172.2907376476645" r="7"/>
      <circle class="dot-11" cx="1104.780029296875" cy="114.47073032344576" r="7"/>
      <circle class="dot-12" cx="1103.949951171875" cy="94.01763584102389" r="7"/>
  </g>

<g id="Lines">
<path stroke-linecap="round" stroke-linejoin="miter" fill-opacity="0" stroke-miterlimit="4" fill="none" stroke-width="18" stroke="#1e9a64" d="M140.4275319726786,306.4183868882263C125.46550977980644,314.10441943235,197.15611045162524,275.7904519764741,197.15611045162524,275.7904519764741C197.15611045162524,275.7904519764741,278.65611045162524,276.2904519764741,278.65611045162524,276.2904519764741C278.65611045162524,276.2904519764741,283.15611045162524,274.7904519764741,283.15611045162524,282.540451976474C283.15611045162524,292.0404519764739,282.15611045162524,592.0404519764757,282.15611045162524,592.0404519764757C282.15611045162524,592.0404519764757,281.65611045162524,597.5404519764757,286.90611045162524,597.5404519764757C296.40611045162524,597.5404519764757,363.90611045162524,597.7904519764757,363.90611045162524,597.7904519764757C363.90611045162524,597.7904519764757,367.15611045162524,598.5404519764759,367.15611045162524,603.7904519764759C367.15611045162524,615.2904519764763,367.40611045162524,635.7904519764768,367.40611045162524,635.7904519764768C367.40611045162524,635.7904519764768,368.15611045162524,640.290451976477,364.40611045162524,640.290451976477C360.5851113061174,640.290451976477,303.9401070336565,639.9294595448364,286.9431130151018,639.821457835852" transform="matrix(0.439727 0 0 0.440226 888.027 -110.378)"/>
<path stroke-linecap="round" stroke-linejoin="miter" fill-opacity="0" stroke-miterlimit="4" fill="none" stroke-width="18" stroke="#1e9a64" d="M375.656110451625,682.7904519764784C375.656110451625,682.7904519764784,113.6561104516249,682.7904519764784,113.6561104516249,682.7904519764784C113.6561104516249,682.7904519764784,113.6561104516249,641.0404519764772,113.6561104516249,641.0404519764772C113.6561104516249,641.0404519764772,239.656110451625,640.5404519764772,239.656110451625,640.5404519764772C239.656110451625,640.5404519764772,240.7253727154121,367.98881577417086,242.06195054514598,323.397716017706C242.59658167704134,319.125514843434,223.88336422138542,320.99460285717794,211.85416375378514,321.2616154305698C213.1907415835181,318.5914896966499,174.6878160485963,339.4933982245489,140.10078037104546,357.7944284873241" transform="matrix(0.439727 0 0 0.440226 888.027 -110.378)"/>
  <path stroke-linecap="round" stroke-linejoin="miter" fill-opacity="0" stroke-miterlimit="4" fill="none" stroke-width="18" stroke="#1e9a64" d="M164.6841435204388,398.5424085843089C168.77305384899506,396.18464580024494,173.94104655693724,393.7602844846361,183.77413887494555,387.66362174160065C186.84338886159918,384.2428598823701,203.8126547395255,374.94013212993445,201.28787169774165,376.90038755625176C200.56195054513415,512.5873991908891,198.2600038473043,518.7547302524422,198.2600038473052,596.7224016829077C184.89422554996924,596.7224016829077,121.22664181513618,597.7904519764759,122.51711304334583,596.936448360462" transform="matrix(0.439727 0 0 0.440226 888.027 -110.378)"/>
 <path stroke-linecap="round" stroke-linejoin="miter" fill-opacity="0" stroke-miterlimit="4" fill="none" stroke-width="18" stroke="#1e9a64" d="M509.8244691495586,276.6372170493866C499.9922831370993,276.4237161453831,471.5271747996951,276.2102152413796,457.8476116519262,276.2102152413797C443.3130758074228,288.59326767357925,404.7177754715143,321.7942007773243,404.7177754715143,321.7942007773243C404.7177754715143,321.7942007773243,404.7177754715143,634.7942007773279,404.7177754715143,634.7942007773279C404.7177754715143,634.7942007773279,452.7177754715128,683.7942007773299,452.7177754715128,683.7942007773299C452.7177754715128,683.7942007773299,612.717775471511,683.7942007773299,612.717775471511,683.7942007773299C612.717775471511,683.7942007773299,659.7177754715108,634.2942007773279,659.7177754715108,634.2942007773279C659.7177754715108,634.2942007773279,659.2902891231433,340.1552785216201,658.8628027747754,321.7942007773243C643.4732942335354,306.42213568907664,620.6224751356028,283.11524236148284,613.7826935617184,277.9912206654002C596.6832396270077,277.99122066540025,580.8730291400591,277.35071795338996,571.074987216881,278.41822247340707" transform="matrix(0.439727 0 0 0.440226 888.027 -110.378)"/>
 <path stroke-linecap="round" stroke-linejoin="miter" fill-opacity="0" stroke-miterlimit="4" fill="none" stroke-width="18" stroke="#1e9a64" d="M548.3006492549125,641.5905263295278C554.0717150051432,641.5905263578547,578.9225344622832,641.3770254538513,587.4722613540166,641.3770254821775C606.7091468131503,620.4539371164517,615.0447750056487,610.9500236741696,615.0447750056487,610.9500236741696C615.0447750056487,610.9500236741696,615.0447750056487,345.9500236741673,615.0447750056487,345.9500236741673C615.0447750056487,345.9500236741673,586.7947750056487,318.4500236741673,586.7947750056487,318.4500236741673C586.7947750056487,318.4500236741673,476.54477500564985,318.4500236741673,476.54477500564985,318.4500236741673C476.54477500564985,318.4500236741673,446.54477500565076,346.4500236741673,446.54477500565076,346.4500236741673C446.54477500565076,346.4500236741673,447.29477500565076,612.7000236741696,447.29477500565076,612.7000236741696C447.29477500565076,612.7000236741696,477.04477500564985,641.2000236741706,477.04477500564985,641.2000236741706C482.39108632458397,641.4670362475626,493.40159052360946,641.413524578174,490.437102084898,641.8405263578545" transform="matrix(0.439727 0 0 0.440226 888.027 -110.378)" />
  <path stroke-linecap="round" stroke-linejoin="miter" fill-opacity="0" stroke-miterlimit="4" fill="none" stroke-width="18" stroke="#1e9a64" d="M491.09829923920324,466.31395145151936C491.09829923920324,466.31395145151936,490.84829923920324,368.0639514515195,490.84829923920324,368.0639514515195C490.84829923920324,368.0639514515195,505.8482992392028,353.5639514515195,505.8482992392028,353.5639514515195C505.8482992392028,353.5639514515195,557.3482992392026,353.0639514515195,557.3482992392026,353.0639514515195C557.3482992392026,353.0639514515195,572.8482992392026,367.3139514515195,572.8482992392026,367.3139514515195C572.8482992392026,367.3139514515195,574.8807582843062,571.6899297554385,574.2395287617553,580.656967723583C569.5371789297085,585.3539876116588,566.1366328644197,589.4709351794593,559.51059446472,595.8759622995626C545.8310313169511,596.0894632035661,527.9726166575902,595.6624613955591,510.3388047874214,595.9827127515646C507.02578558757114,592.5666982875093,495.5143922454322,580.5839695315897,492.8426025681333,577.7017073275433C492.94947415522665,571.8304324674486,492.3082446326748,520.3490236955006,493.5907036777776,512.6080667672311" transform="matrix(0.439727 0 0 0.440226 888.027 -110.378)"/></g>
</svg>
