; Drill file
; Format: 3.3 (000.000)
M48
METRIC
T01C0.8
T02C1
T03C1.2
T04C2.5
%
G05
G90
T01
X005720Y013300
X005720Y015840
X005720Y018380
X005720Y020920
X005720Y023460
X005720Y026000
X005720Y028540
X005720Y031080
X005720Y033620
X005720Y036160
X005720Y038700
X005720Y041240
X009520Y044090
X009520Y048540
X015240Y049490
X015240Y051710
X017780Y051710
X020320Y051710
X022860Y051710
X025400Y051710
X027940Y051710
X030480Y051710
X033020Y051710
X035560Y051710
X038100Y051710
X040640Y051710
X043180Y051710
X045720Y051710
X048260Y051710
X048260Y056790
X048260Y059330
X048260Y059330
X045720Y059330
X043180Y059330
X040640Y059330
X038100Y059330
X035560Y059330
X033020Y059330
X030480Y059330
X027940Y059330
X025400Y059330
X022860Y059330
X020320Y059330
X017780Y059330
X015240Y059330
X015240Y061870
X017780Y061870
X020320Y061870
X022860Y061870
X024130Y067590
X028970Y067590
X036200Y064100
X044760Y065680
X044760Y069680
X051120Y065680
X053980Y065680
X059060Y065680
X056520Y048220
X048900Y036470
X048900Y033930
X048900Y031390
X048900Y028850
X048900Y026310
X048900Y023770
X048900Y021230
X048900Y018690
X048900Y018690
X051120Y012660
X041280Y018690
X041280Y021230
X041280Y023770
X041280Y026310
X041280Y028850
X041280Y031390
X041280Y033930
X041280Y036470
X019050Y026000
X013340Y026000
X013340Y023460
X013340Y020920
X013340Y018380
X013340Y015840
X013320Y013320
X019050Y019640
X013340Y028540
X013340Y031080
X013340Y033620
X013340Y036160
X013340Y038700
X013340Y041240
X015240Y044090
X012060Y059330
X012060Y064100
X013890Y076800
X023890Y076800
X041300Y079030
X046380Y079030
X028890Y096800
X008890Y096800
X026670Y056790
T02
X021500Y015610
X024040Y015610
X026580Y015610
X012060Y051070
X009520Y051070
X009520Y053610
X006980Y053610
X006980Y051070
X004440Y051070
X004440Y053610
X041300Y089190
X041300Y094270
X046380Y094270
X046380Y089190
X053980Y075210
X056520Y072670
X059060Y075210
T03
X013970Y005990
X019050Y005990
X024130Y005990
X029210Y005990
X035560Y005990
X040640Y005990
X045720Y005990
X050800Y005990
X056520Y014880
X056520Y019960
X056520Y025040
X048900Y108230
X043820Y108230
X036200Y108230
X013340Y108230
T04
X005080Y004090
X060320Y004090
X060320Y110770
X005080Y110770
M30
