; Drill file
; Format: 3.3 (000.000)
M48
METRIC
T01C0.8
T02C1
T03C1.2
T04C2.5
%
G05
G90
T01
X060600Y025240
X060600Y027780
X060600Y030320
X060600Y032860
X060600Y035400
X060600Y037940
X060600Y040480
X060600Y043020
X060600Y045560
X060600Y048100
X060600Y050640
X060600Y053180
X058060Y056780
X052980Y053180
X052980Y050640
X052980Y048100
X052980Y045560
X052980Y043020
X052980Y040480
X052980Y037940
X052980Y035400
X052980Y032860
X052980Y030320
X052980Y027780
X052980Y025270
X046620Y031590
X046620Y037940
X044720Y056670
X044720Y060480
X042180Y060480
X039640Y060480
X037100Y060480
X034560Y060480
X032020Y060480
X029480Y060480
X026940Y060480
X024400Y060480
X021860Y060480
X019320Y060480
X016780Y060480
X016780Y065560
X016780Y068100
X016780Y068100
X019320Y068100
X021860Y068100
X024400Y068100
X026940Y068100
X029480Y068100
X032020Y068100
X034560Y068100
X037100Y068100
X039640Y068100
X042180Y068100
X044720Y068100
X047260Y068100
X049800Y068100
X049800Y070640
X047260Y070640
X044720Y070640
X042180Y070640
X040910Y076040
X036070Y076040
X028840Y072860
X038370Y065560
X047260Y060480
X049800Y060480
X052980Y068100
X052980Y072860
X052740Y084400
X042740Y084400
X023740Y084620
X018660Y084620
X013920Y074450
X011060Y074450
X005980Y074450
X008520Y056990
X016140Y047460
X016140Y044920
X016140Y042380
X016140Y039840
X016140Y037300
X016140Y034760
X016140Y032220
X016140Y029680
X016140Y029680
X013920Y023650
X023760Y029680
X023760Y032220
X023760Y034760
X023760Y037300
X023760Y039840
X023760Y042380
X023760Y044920
X023760Y047460
X037740Y104400
X057740Y104400
T02
X043540Y029780
X041000Y029780
X038460Y029780
X052980Y059840
X055520Y059840
X055520Y062380
X058060Y062380
X058060Y059840
X060600Y059840
X060600Y062380
X027540Y093200
X027540Y098280
X022460Y098280
X022460Y093200
X011060Y079220
X008520Y076680
X005980Y079220
T03
X051070Y018570
X045990Y018570
X040910Y018570
X035830Y018570
X029480Y018570
X024400Y018570
X019320Y018570
X014240Y018570
X008520Y025880
X008520Y030960
X008520Y036040
X005030Y106940
X027890Y106940
X044080Y110960
X049160Y110960
T04
X059960Y013810
X004720Y013810
X004720Y113500
X059960Y113500
M30
