<svg xmlns="http://www.w3.org/2000/svg" width="110" height="40" viewBox="0,0,110,40"><rect width="100%" height="100%" fill="rgb(23,23,23)"/><path d="M4 27 C56 27,63 27,95 9" stroke="#e0912b" fill="none"/><path d="M13 5 C53 32,72 24,94 35" stroke="#d3b33e" fill="none"/><path d="M16 3 C52 17,54 30,100 29" stroke="#c4df58" fill="none"/><path fill="rgb(193,159,84)" d="M15.38 6.95L17.07 7.01L17.02 13.46L20.37 13.56L20.25 16.70L17.14 16.83L16.98 26.43L18.59 26.42L18.61 23.18L20.26 23.21L20.25 26.45L18.73 26.56L18.68 29.75L15.49 29.82L15.35 26.42L13.73 26.43L13.78 16.73L12.14 16.71L12.12 13.44L13.71 13.41L13.83 10.28L15.51 10.33L15.38 6.95"/><path fill="rgb(193,159,84)" d="M26.08 26.59L26.04 23.30L29.25 23.27L29.16 26.43L32.58 26.60L32.57 20.09L29.24 20.00L29.32 16.83L32.56 16.83L32.41 10.18L29.18 10.20L29.32 13.58L25.97 13.48L25.98 10.24L27.51 10.15L27.67 7.07L34.08 6.98L34.14 10.28L35.83 10.34L35.72 16.74L34.13 16.78L34.09 19.98L35.66 19.93L35.83 26.59L34.08 26.47L34.12 29.76L27.65 29.79L27.63 26.52L25.94 26.46"/><path fill="rgb(193,159,84)" d="M41.45 7.04L44.71 7.05L44.73 16.82L47.89 16.73L48.00 7.09L51.17 7.01L51.10 29.69L47.97 29.81L48.01 20.10L44.59 19.93L44.66 29.75L41.38 29.72L41.37 6.96"/><path fill="rgb(193,159,84)" d="M59.99 13.40L58.53 13.56L58.48 23.27L60.14 23.30L60.15 26.56L61.77 26.55L61.62 23.16L63.27 23.18L63.42 13.58L61.81 13.59L61.78 10.31L60.18 10.34L60.10 13.52ZM55.19 23.23L55.27 13.56L56.76 13.42L56.90 10.31L58.52 10.31L58.45 6.99L63.31 6.98L63.29 10.20L64.95 10.23L65.03 13.57L66.60 13.52L66.68 23.35L65.02 23.31L64.99 29.78L66.57 29.73L66.53 32.94L63.43 33.10L63.27 29.68L58.37 29.65L58.49 26.53L56.76 26.42L56.85 23.27L55.18 23.22"/><path fill="rgb(193,159,84)" d="M72.18 26.42L72.24 19.97L75.44 19.92L75.60 26.58L78.72 26.45L78.80 10.28L77.15 10.25L77.12 6.98L81.96 6.95L82.04 28.14L80.33 28.06L80.48 29.84L73.95 29.81L73.85 26.46L72.19 26.43"/><path fill="rgb(193,159,84)" d="M87.63 26.43L87.78 20.09L90.88 19.94L90.86 26.41L94.19 26.50L94.19 10.24L92.57 10.25L92.51 6.94L97.46 7.02L97.38 28.06L95.80 28.10L95.86 29.79L89.27 29.70L89.27 26.45L87.65 26.45"/></svg>