<?xml version="1.0" encoding="utf-8"?>
<!-- Generator: Adobe Illustrator 15.1.0, SVG Export Plug-In . SVG Version: 6.00 Build 0)  -->
<!DOCTYPE svg PUBLIC "-//W3C//DTD SVG 1.1//EN" "http://www.w3.org/Graphics/SVG/1.1/DTD/svg11.dtd">
<svg version="1.1" id="Calque_1" xmlns="http://www.w3.org/2000/svg" xmlns:xlink="http://www.w3.org/1999/xlink" x="0px" y="0px"
	 width="512px" height="337.052px" viewBox="0 0 512 337.052" enable-background="new 0 0 512 337.052" xml:space="preserve">
<polygon fill="#00365E" points="10.77,193.53 27.063,280.541 31.069,280.541 50.54,194.368 62.964,194.368 82.435,280.541 
	86.441,280.541 102.734,193.53 113.646,193.53 94.31,290.027 74.842,290.027 56.75,207.611 38.661,290.027 19.194,290.027 
	-0.281,193.53 "/>
<path fill="#00365E" d="M141.711,220.305h10.355v69.72h-10.355V220.305z M141.711,192.413h10.355v12.13h-10.355V192.413z"/>
<path fill="#00365E" d="M199.578,229.369v33.32c0,15.202,0.967,19.529,9.941,19.529c3.868,0,12.292-0.84,12.292-0.84l0.688,8.652
	c0,0-9.251,1.529-14.079,1.529c-14.228,0-19.06-5.436-19.06-25.519v-36.673h-9.806v-9.067h9.806v-21.336h10.217v21.336h21.958v9.067
	H199.578z"/>
<path fill="#00365E" d="M291.283,251.12c0-17.291-5.252-23.422-17.402-23.422c-11.735,0-18.368,6.546-18.497,23.422H291.283z
	 M299.016,280.963l0.28,8.228c0,0-15.745,2.235-26.931,2.235c-20.578,0-27.345-12.137-27.345-35.843
	c0-26.494,11.331-36.672,28.861-36.672c18.371,0,27.764,9.756,27.764,32.624l-0.557,7.95h-45.575c0,14.926,4.56,22.73,18.094,22.73
	C283.966,282.216,299.016,280.963,299.016,280.963"/>
<polygon fill="#00B7EE" points="331.623,290.027 331.623,189.905 341.98,189.905 341.98,249.03 352.754,248.478 372.502,220.309 
	384.237,220.309 361.729,252.376 385.206,290.027 373.468,290.027 352.893,257.673 341.98,258.095 341.98,290.027 "/>
<path fill="#00365E" d="M411.593,220.305h10.354v69.72h-10.354V220.305z M411.593,192.413h10.354v12.13h-10.354V192.413z"/>
<path fill="#00365E" d="M501.088,254.331c0-19.385-4.145-26.353-18.921-26.353c-14.635,0-18.918,6.968-18.918,26.353
	c0,19.803,2.63,28.026,18.918,28.026C498.597,282.357,501.088,274.134,501.088,254.331 M511.719,254.331
	c0,25.376-6.213,37.095-29.552,37.095c-23.201,0-29.553-11.719-29.553-37.095c0-23.982,7.735-35.42,29.553-35.42
	C504.122,218.911,511.719,230.349,511.719,254.331"/>
<path fill="#00B7EE" d="M214.471,140.636c-4.906,0-9.502-3.079-11.24-8.014L162.17,16.034c-2.211-6.268,1.034-13.157,7.246-15.389
	c6.207-2.228,13.026,1.045,15.236,7.312l41.06,116.587c2.207,6.272-1.038,13.161-7.245,15.389
	C217.149,140.407,215.796,140.636,214.471,140.636"/>
<path fill="#00365E" d="M342.029,0.646c-6.207-2.23-13.032,1.045-15.243,7.312l-29.815,84.667L267.151,7.958
	c-1.56-4.421-5.428-7.302-9.738-7.862c-0.078-0.014-0.156-0.028-0.233-0.038c-0.468-0.05-0.935-0.064-1.41-0.057
	c-0.474-0.007-0.943,0.007-1.41,0.057c-0.078,0.01-0.155,0.024-0.233,0.038c-4.311,0.561-8.18,3.441-9.739,7.862l-24.849,70.29
	l12.659,35.951l23.555-66.694l29.979,85.117c0.079,0.233,0.204,0.443,0.294,0.666c0.107,0.247,0.207,0.496,0.325,0.733
	c0.235,0.467,0.505,0.906,0.789,1.332c0.11,0.155,0.196,0.322,0.311,0.474c0.423,0.567,0.886,1.092,1.392,1.565
	c0.124,0.118,0.27,0.216,0.4,0.327c0.409,0.354,0.838,0.683,1.287,0.978c0.204,0.131,0.415,0.247,0.623,0.368
	c0.467,0.267,0.951,0.493,1.453,0.695c0.125,0.049,0.235,0.126,0.367,0.173c0.062,0.024,0.128,0.031,0.193,0.053
	c0.442,0.149,0.893,0.258,1.342,0.353c0.188,0.04,0.363,0.101,0.547,0.128c0.623,0.107,1.263,0.163,1.903,0.166h0.014h0.014
	c0.637-0.003,1.276-0.059,1.903-0.166c0.18-0.027,0.359-0.088,0.543-0.128c0.453-0.095,0.906-0.204,1.346-0.353
	c0.063-0.022,0.128-0.029,0.193-0.053c0.128-0.047,0.239-0.125,0.367-0.173c0.498-0.202,0.982-0.429,1.453-0.695
	c0.211-0.121,0.415-0.237,0.622-0.368c0.45-0.294,0.879-0.623,1.287-0.978c0.132-0.111,0.277-0.209,0.401-0.327
	c0.505-0.474,0.969-0.998,1.391-1.565c0.111-0.148,0.201-0.315,0.309-0.47c0.287-0.426,0.557-0.869,0.788-1.335
	c0.121-0.237,0.219-0.486,0.329-0.73c0.09-0.227,0.211-0.436,0.298-0.669l41.052-116.587C351.481,9.767,348.236,2.877,342.029,0.646
	"/>
<path fill="#00B7EE" d="M204.938,333.135l-1.225,3.917h-4.759l6.802-19.479h5.459l6.189,19.479h-4.963l-1.052-3.917H204.938z
	 M208.382,321.926l-2.363,7.618h4.407L208.382,321.926z"/>
<path fill="#00B7EE" d="M230.918,337.048l-5.52-9.953l-2.012-3.799c0.061,1.024,0.061,1.751,0.061,2.339
	c0.024,1.052,0.024,2.187,0.024,3.411v8.002h-3.996v-19.471h4.553l5.369,9.69c0.759,1.46,1.258,2.484,1.988,3.944
	c-0.061-0.789-0.061-1.315-0.061-1.903l-0.031-1.46v-1.397v-8.874h4v19.471H230.918z"/>
<path fill="#00B7EE" d="M252.083,333.135l-1.225,3.917H246.1l6.802-19.479h5.459l6.187,19.479h-4.96l-1.052-3.917H252.083z
	 M255.527,321.926l-2.363,7.618h4.408L255.527,321.926z"/>
<path fill="#00B7EE" d="M270.21,337.048l-6.418-19.471h4.698l2.567,8.874c0,0.031,0.204,0.761,0.381,1.397
	c0.146,0.588,0.318,1.142,0.471,1.699l0.581,2.155c0.522-2.155,0.667-2.74,1.37-5.279l2.602-8.847h4.58l-6.511,19.471H270.21z"/>
<path fill="#00B7EE" d="M294.556,337.048l-5.521-9.953l-2.01-3.799c0.059,1.024,0.059,1.751,0.059,2.339
	c0.027,1.052,0.027,2.187,0.027,3.411v8.002h-3.999v-19.471h4.553l5.369,9.69c0.762,1.46,1.26,2.484,1.989,3.944
	c-0.059-0.789-0.059-1.315-0.059-1.903l-0.034-1.46v-1.397v-8.874h3.999v19.471H294.556z"/>
<polygon fill="#00B7EE" points="317.556,321.313 307.433,321.313 307.433,325.108 316.272,325.108 316.272,328.555 307.433,328.555 
	307.433,333.312 317.732,333.312 317.732,337.045 303.046,337.045 303.046,317.573 317.556,317.573 "/>
<polygon fill="#00B7EE" points="329.816,337.048 325.437,337.048 325.437,321.313 319.541,321.313 319.541,317.577 335.712,317.577 
	335.712,321.313 329.816,321.313 "/>
<path fill="#00B7EE" d="M359.272,323.794c-0.437-1.868-1.868-2.947-3.94-2.947c-3.214,0-5.052,2.366-5.052,6.448
	c0,4.063,1.838,6.483,4.931,6.483c2.248,0,3.595-1.11,4.124-3.445h4.639c-0.525,4.407-3.826,7.154-8.642,7.154
	c-5.747,0-9.428-3.972-9.428-10.192c0-6.244,3.619-10.157,9.399-10.157c4.698,0,7.905,2.512,8.435,6.656H359.272z"/>
<path fill="#00B7EE" d="M385.338,327.476c0,5.923-3.941,10.012-9.632,10.012c-5.781,0-9.663-4.089-9.663-10.188
	c0-3.18,1.079-5.927,3.007-7.677c1.785-1.641,4.058-2.48,6.625-2.48C381.542,317.142,385.338,321.192,385.338,327.476
	 M370.627,327.299c0,4.059,1.896,6.479,5.079,6.479c3.12,0,5.044-2.421,5.044-6.394c0-4.116-1.865-6.538-5.075-6.538
	C372.522,320.847,370.627,323.269,370.627,327.299"/>
<path fill="#00B7EE" d="M396.142,337.048l-2.688-10.361c-0.201-0.879-0.377-1.495-0.491-1.903c-0.146-0.608-0.181-0.727-0.354-1.279
	c0.063,0.698,0.063,1.196,0.063,1.515l0.021,1.872v10.157h-3.999v-19.471h6.162l2.483,10.188c0.377,1.519,0.699,3.124,0.938,4.408
	c0.083-0.381,0.111-0.585,0.111-0.616l0.325-1.252c0.055-0.354,0.173-0.789,0.29-1.315c0.146-0.612,0.291-1.225,0.291-1.287
	l2.539-10.126h6.1v19.471h-4.003v-10.157l0.034-1.872c0-0.38,0-0.816,0.063-1.515c-0.325,1.169-0.529,1.954-0.615,2.217
	c-0.177,0.522-0.264,0.907-0.294,0.931l-2.657,10.396H396.142z"/>
<path fill="#00B7EE" d="M416.454,337.048h-4.377v-19.471h7.649c2.657,0,4.055,0.377,5.311,1.491
	c1.343,1.193,2.104,2.976,2.104,5.079c0,1.777-0.557,3.328-1.664,4.493c-1.169,1.222-2.657,1.782-4.906,1.782h-4.116V337.048z
	 M419.899,326.687c1.723,0,2.774-1.024,2.774-2.691c0-1.688-1.052-2.685-2.774-2.685h-3.445v5.376H419.899z"/>
<path fill="#00B7EE" d="M432.859,333.135l-1.225,3.917h-4.757l6.802-19.479h5.459l6.189,19.479h-4.961l-1.052-3.917H432.859z
	 M436.306,321.926l-2.363,7.618h4.407L436.306,321.926z"/>
<path fill="#00B7EE" d="M458.842,337.048l-5.521-9.953l-2.011-3.799c0.06,1.024,0.06,1.751,0.06,2.339
	c0.027,1.052,0.027,2.187,0.027,3.411v8.002h-3.999v-19.471h4.553l5.369,9.69c0.761,1.46,1.26,2.484,1.989,3.944
	c-0.059-0.789-0.059-1.315-0.059-1.903l-0.035-1.46v-1.397v-8.874h4v19.471H458.842z"/>
<polygon fill="#00B7EE" points="476.067,337.048 471.69,337.048 471.69,329.721 465.235,317.577 470.106,317.577 473.818,325.662 
	477.759,317.577 482.547,317.577 476.067,329.721 "/>
</svg>
