<svg viewBox="0 0 169.36 126.37" xmlns="http://www.w3.org/2000/svg"><path d="m15.54 70.2 4.6 24.56h1.13l5.49-24.33h3.51l5.5 24.33h1.13l4.6-24.56h3.08l-5.46 27.24h-5.5l-5.1-23.27-5.11 23.27h-5.5l-5.49-27.24z" fill="#fff"/><path d="m52.5 77.76h2.92v19.68h-2.92zm0-7.88h2.92v3.43h-2.92z" fill="#fff"/><path d="m68.83 80.31v9.41c0 4.29.28 5.51 2.81 5.51 1.09 0 3.47-.24 3.47-.24l.19 2.45a34 34 0 0 1 -4 .43c-4 0-5.38-1.54-5.38-7.2v-10.36h-2.74v-2.56h2.82v-6h2.88v6h6.12v2.56z" fill="#fff"/><path d="m94.72 86.45c0-4.88-1.48-6.61-4.91-6.61s-5.19 1.85-5.23 6.61zm2.18 8.43.1 2.32a67.2 67.2 0 0 1 -7.6.63c-5.81 0-7.72-3.42-7.72-10.12 0-7.47 3.2-10.35 8.15-10.35 5.18 0 7.83 2.76 7.83 9.21l-.15 2.25h-12.89c0 4.21 1.29 6.41 5.11 6.41 2.92 0 7.17-.35 7.17-.35" fill="#fff"/><path d="m106.11 97.44v-28.27h2.92v16.69l3.04-.15 5.57-7.95h3.32l-6.36 9.05 6.63 10.63h-3.31l-5.81-9.14-3.08.12v9.02z" fill="#00aeea"/><path d="m128.68 77.76h2.92v19.68h-2.92zm0-7.88h2.92v3.43h-2.92z" fill="#fff"/><path d="m153.94 87.36c0-5.47-1.17-7.44-5.34-7.44s-5.34 2-5.34 7.44.74 7.91 5.34 7.91 5.34-2.32 5.34-7.91m3 0c0 7.16-1.75 10.47-8.34 10.47s-8.34-3.31-8.34-10.47c0-6.77 2.18-10 8.34-10s8.34 3.23 8.34 10" fill="#fff"/><path d="m73 55.27a3.37 3.37 0 0 1 -3.14-2.27l-11.59-32.9a3.42 3.42 0 0 1 2-4.35 3.36 3.36 0 0 1 4.3 2.07l11.59 32.9a3.4 3.4 0 0 1 -3.16 4.55" fill="#00aeea"/><g fill="#fff"><path d="m109 15.75a3.36 3.36 0 0 0 -4.3 2.07l-8.38 23.89-8.41-23.89a3.35 3.35 0 0 0 -2.75-2.22h-.07a2.61 2.61 0 0 0 -.4 0 2.55 2.55 0 0 0 -.39 0h-.07a3.35 3.35 0 0 0 -2.75 2.22l-7 19.84 3.52 10.14 6.69-18.8 8.46 24c0 .07.06.13.08.19a2 2 0 0 0 .1.21 2.88 2.88 0 0 0 .22.38 1 1 0 0 0 .09.13 3.31 3.31 0 0 0 .39.44l.11.09a3.27 3.27 0 0 0 .37.28 1 1 0 0 0 .17.1 3.11 3.11 0 0 0 .41.2h.1.06a1.64 1.64 0 0 0 .38.1h.15a3.29 3.29 0 0 0 .54.05 3.07 3.07 0 0 0 .53-.05h.16a1.78 1.78 0 0 0 .38-.1h.11a3.86 3.86 0 0 0 .41-.2l.17-.1a3.27 3.27 0 0 0 .37-.28l.11-.09a3.31 3.31 0 0 0 .39-.44l.09-.13c.08-.12.15-.25.22-.38a1.89 1.89 0 0 0 .09-.21l.15-.19 11.59-32.9a3.42 3.42 0 0 0 -2.09-4.35z"/><path d="m70.35 109.6-.35 1.11h-1.34l1.92-5.5h1.54l1.74 5.5h-1.4l-.29-1.11zm1-3.16-.67 2.15h1.24z"/><path d="m77.68 110.71-1.56-2.81-.57-1.07v.66s0 .61 0 1v2.26h-1.1v-5.5h1.28l1.52 2.75.56 1.11a5.34 5.34 0 0 1 0-.54v-3.31h1.12v5.5z"/><path d="m83.65 109.6-.34 1.11h-1.31l1.92-5.5h1.55l1.74 5.5h-1.4l-.3-1.11zm1-3.16-.65 2.15h1.2z"/><path d="m88.77 110.71-1.77-5.5h1.32l.73 2.51s.06.21.11.39.09.32.13.48l.16.61c.15-.61.19-.77.39-1.49l.73-2.5h1.3l-1.87 5.5z"/><path d="m95.64 110.71-1.56-2.81-.56-1.07v.66s0 .61 0 1v2.26h-1.11v-5.5h1.29l1.51 2.75c.22.41.36.7.56 1.11 0-.22 0-.37 0-.54v-3.31h1.13v5.5z"/><path d="m102.13 106.27h-2.85v1.07h2.49v1h-2.49v1.34h2.9v1.06h-4.18v-5.5h4.09z"/><path d="m105.6 110.71h-1.24v-4.44h-1.67v-1.06h4.57v1.06h-1.66z"/><path d="m113.91 107a1.05 1.05 0 0 0 -1.11-.84c-.91 0-1.43.67-1.43 1.83s.52 1.83 1.39 1.83a1.1 1.1 0 0 0 1.17-1h1.31a2.25 2.25 0 0 1 -2.44 2 2.88 2.88 0 0 1 0-5.74 2.16 2.16 0 0 1 2.38 1.88z"/><path d="m121.27 108a2.73 2.73 0 1 1 -5.45-.05 2.89 2.89 0 0 1 .85-2.17 2.69 2.69 0 0 1 1.87-.7 2.65 2.65 0 0 1 2.73 2.92zm-4.16-.05c0 1.14.54 1.83 1.44 1.83s1.45-.68 1.45-1.78-.52-1.85-1.43-1.85-1.46.67-1.46 1.85z"/><path d="m124.32 110.71-.76-2.93c-.06-.24-.11-.42-.14-.53a3.29 3.29 0 0 0 -.1-.37 4 4 0 0 1 0 .43v3.4h-1.12v-5.5h1.8l.7 2.88c.11.43.2.88.27 1.24 0-.11 0-.16 0-.17l.09-.36c0-.09 0-.22.08-.37a3.4 3.4 0 0 0 .09-.36l.71-2.86h1.72v5.5h-1.12v-3.4a3.91 3.91 0 0 1 0-.43l-.17.63c-.05.15-.08.26-.08.26l-.75 2.94z"/><path d="m130.05 110.71h-1.24v-5.5h2.19a2 2 0 0 1 1.5.42 1.88 1.88 0 0 1 .6 1.44 1.77 1.77 0 0 1 -.47 1.26 1.75 1.75 0 0 1 -1.39.51h-1.16zm1-2.93a.72.72 0 0 0 .79-.76.71.71 0 0 0 -.79-.75h-1v1.51z"/><path d="m134.68 109.6-.34 1.11h-1.34l1.92-5.5h1.54l1.75 5.5h-1.4l-.3-1.11zm1-3.16-.66 2.15h1.24z"/><path d="m142 110.71-1.56-2.81-.57-1.07v.66 3.22h-1.13v-5.5h1.29l1.52 2.74.56 1.11a5.34 5.34 0 0 1 0-.54v-3.31h1.13v5.5z"/><path d="m146.88 110.71h-1.24v-2.07l-1.82-3.43h1.38l1 2.28 1.11-2.28h1.36l-1.83 3.43z"/></g></svg>