<?xml version="1.0" encoding="UTF-8" standalone="no"?>
<svg width="138px" height="17px" viewBox="0 0 138 17" version="1.1" xmlns="http://www.w3.org/2000/svg" xmlns:xlink="http://www.w3.org/1999/xlink" xmlns:sketch="http://www.bohemiancoding.com/sketch/ns">
    <!-- Generator: Sketch 3.3.3 (12072) - http://www.bohemiancoding.com/sketch -->
    <title>HACKADAY.IO Copy 2</title>
    <desc>Created with Sketch.</desc>
    <defs>
        <filter x="-50%" y="-50%" width="200%" height="200%" filterUnits="objectBoundingBox" id="filter-1">
            <feOffset dx="0" dy="0" in="SourceAlpha" result="shadowOffsetOuter1"></feOffset>
            <feGaussianBlur stdDeviation="0.5" in="shadowOffsetOuter1" result="shadowBlurOuter1"></feGaussianBlur>
            <feColorMatrix values="0 0 0 0 0   0 0 0 0 0   0 0 0 0 0  0 0 0 0.7 0" in="shadowBlurOuter1" type="matrix" result="shadowMatrixOuter1"></feColorMatrix>
            <feMerge>
                <feMergeNode in="shadowMatrixOuter1"></feMergeNode>
                <feMergeNode in="SourceGraphic"></feMergeNode>
            </feMerge>
        </filter>
    </defs>
    <g id="Icons-/-Resources" stroke="none" stroke-width="1" fill="none" fill-rule="evenodd" sketch:type="MSPage">
        <path d="M13.72,15.73 L10.32,15.73 L10.32,9.57 L4.4,9.57 L4.4,15.73 L1,15.73 L1,1.16 L4.4,1.16 L4.4,7.25 L10.32,7.25 L10.32,1.16 L13.72,1.16 L13.72,15.73 Z M29.68,15.73 L27.06,15.73 C26.7666652,15.73 26.525001,15.6616674 26.335,15.525 C26.144999,15.3883326 26.0133337,15.2133344 25.94,15 L25.08,12.46 L19.54,12.46 L18.68,15 C18.613333,15.1866676 18.4833343,15.3549993 18.29,15.505 C18.0966657,15.6550007 17.8600014,15.73 17.58,15.73 L14.94,15.73 L20.58,1.16 L24.04,1.16 L29.68,15.73 Z M20.32,10.16 L24.3,10.16 L22.96,6.17 C22.8733329,5.9166654 22.7716672,5.61833505 22.655,5.275 C22.5383327,4.93166495 22.4233339,4.560002 22.31,4.16 C22.2033328,4.5666687 22.0933339,4.9433316 21.98,5.29 C21.8666661,5.6366684 21.7600005,5.9366654 21.66,6.19 L20.32,10.16 Z M40.05,11.96 C40.1300004,11.96 40.2099996,11.9749998 40.29,12.005 C40.3700004,12.0350002 40.4466663,12.0866663 40.52,12.16 L41.86,13.57 C41.2733304,14.3366705 40.5383377,14.9149981 39.655,15.305 C38.7716623,15.695002 37.7266727,15.89 36.52,15.89 C35.4133278,15.89 34.4216711,15.7016686 33.545,15.325 C32.668329,14.9483315 31.9250031,14.4283367 31.315,13.765 C30.7049969,13.1016633 30.2366683,12.3150046 29.91,11.405 C29.5833317,10.4949955 29.42,9.506672 29.42,8.44 C29.42,7.3533279 29.6066648,6.35500455 29.98,5.445 C30.3533352,4.53499545 30.8749966,3.7500033 31.545,3.09 C32.2150034,2.4299967 33.016662,1.9166685 33.95,1.55 C34.883338,1.1833315 35.9133277,1 37.04,1 C37.5866694,1 38.1016642,1.04833285 38.585,1.145 C39.0683358,1.24166715 39.5199979,1.37499915 39.94,1.545 C40.3600021,1.71500085 40.7466649,1.91833215 41.1,2.155 C41.4533351,2.39166785 41.7666653,2.6533319 42.04,2.94 L40.9,4.47 C40.8266663,4.5633338 40.7400005,4.64833295 40.64,4.725 C40.5399995,4.80166705 40.4000009,4.84 40.22,4.84 C40.0999994,4.84 39.9866672,4.8133336 39.88,4.76 C39.7733328,4.7066664 39.6600006,4.64166705 39.54,4.565 C39.4199994,4.48833295 39.288334,4.40500045 39.145,4.315 C39.001666,4.22499955 38.8316676,4.14166705 38.635,4.065 C38.4383323,3.98833295 38.2083346,3.9233336 37.945,3.87 C37.6816653,3.8166664 37.3733351,3.79 37.02,3.79 C36.4066636,3.79 35.8466692,3.89833225 35.34,4.115 C34.8333308,4.33166775 34.3983351,4.64166465 34.035,5.045 C33.6716648,5.44833535 33.3883343,5.9366638 33.185,6.51 C32.9816656,7.0833362 32.88,7.7266631 32.88,8.44 C32.88,9.1866704 32.9816656,9.8499971 33.185,10.43 C33.3883343,11.0100029 33.6649982,11.4983314 34.015,11.895 C34.3650017,12.2916687 34.773331,12.5933323 35.24,12.8 C35.706669,13.0066677 36.206664,13.11 36.74,13.11 C37.0466682,13.11 37.3266654,13.0950002 37.58,13.065 C37.8333346,13.0349999 38.0683322,12.9833337 38.285,12.91 C38.5016677,12.8366663 38.7083323,12.7416673 38.905,12.625 C39.1016677,12.5083328 39.299999,12.3633342 39.5,12.19 C39.5800004,12.123333 39.6666662,12.0683336 39.76,12.025 C39.8533338,11.9816665 39.9499995,11.96 40.05,11.96 L40.05,11.96 Z M46.78,7.06 L47.32,7.06 C47.8200025,7.06 48.1799989,6.9033349 48.4,6.59 L51.68,1.83 C51.8600009,1.5699987 52.0649989,1.3933338 52.295,1.3 C52.5250011,1.2066662 52.806665,1.16 53.14,1.16 L56.08,1.16 L51.76,7.05 C51.6066659,7.2633344 51.4466675,7.4399993 51.28,7.58 C51.1133325,7.7200007 50.9433342,7.8366662 50.77,7.93 C51.0233346,8.0233338 51.254999,8.15166585 51.465,8.315 C51.6750011,8.47833415 51.8666658,8.6966653 52.04,8.97 L56.44,15.73 L53.42,15.73 C53.2266657,15.73 53.0616674,15.7166668 52.925,15.69 C52.7883327,15.6633332 52.6700005,15.6233336 52.57,15.57 C52.4699995,15.5166664 52.3833337,15.4516671 52.31,15.375 C52.2366663,15.2983329 52.166667,15.2100005 52.1,15.11 L48.8,10.04 C48.6799994,9.8533324 48.5283343,9.72166705 48.345,9.645 C48.1616658,9.56833295 47.9133349,9.53 47.6,9.53 L46.78,9.53 L46.78,15.73 L43.4,15.73 L43.4,1.16 L46.78,1.16 L46.78,7.06 Z M71.24,15.73 L68.62,15.73 C68.3266652,15.73 68.085001,15.6616674 67.895,15.525 C67.7049991,15.3883326 67.5733337,15.2133344 67.5,15 L66.64,12.46 L61.1,12.46 L60.24,15 C60.173333,15.1866676 60.0433343,15.3549993 59.85,15.505 C59.6566657,15.6550007 59.4200014,15.73 59.14,15.73 L56.5,15.73 L62.14,1.16 L65.6,1.16 L71.24,15.73 Z M61.88,10.16 L65.86,10.16 L64.52,6.17 C64.4333329,5.9166654 64.3316672,5.61833505 64.215,5.275 C64.0983328,4.93166495 63.9833339,4.560002 63.87,4.16 C63.7633328,4.5666687 63.6533339,4.9433316 63.54,5.29 C63.4266661,5.6366684 63.3200005,5.9366654 63.22,6.19 L61.88,10.16 Z M85.64,8.44 C85.64,9.4933386 85.4583351,10.4649956 85.095,11.355 C84.7316649,12.2450044 84.2200033,13.0149968 83.56,13.665 C82.8999967,14.3150033 82.1050046,14.8216649 81.175,15.185 C80.2449953,15.5483351 79.213339,15.73 78.08,15.73 L72.42,15.73 L72.42,1.16 L78.08,1.16 C79.213339,1.16 80.2449953,1.3433315 81.175,1.71 C82.1050046,2.0766685 82.8999967,2.5833301 83.56,3.23 C84.2200033,3.8766699 84.7316649,4.64499555 85.095,5.535 C85.4583351,6.42500445 85.64,7.3933281 85.64,8.44 L85.64,8.44 Z M82.18,8.44 C82.18,7.7199964 82.0866676,7.0700029 81.9,6.49 C81.7133324,5.9099971 81.4450018,5.41833535 81.095,5.015 C80.7449982,4.61166465 80.3166692,4.30166775 79.81,4.085 C79.3033308,3.86833225 78.7266699,3.76 78.08,3.76 L75.82,3.76 L75.82,13.13 L78.08,13.13 C78.7266699,13.13 79.3033308,13.0216678 79.81,12.805 C80.3166692,12.5883323 80.7449982,12.2783354 81.095,11.875 C81.4450018,11.4716647 81.7133324,10.9800029 81.9,10.4 C82.0866676,9.8199971 82.18,9.1666703 82.18,8.44 L82.18,8.44 Z M100.22,15.73 L97.6,15.73 C97.3066652,15.73 97.0650009,15.6616674 96.875,15.525 C96.684999,15.3883326 96.5533337,15.2133344 96.48,15 L95.62,12.46 L90.08,12.46 L89.22,15 C89.153333,15.1866676 89.0233343,15.3549993 88.83,15.505 C88.6366657,15.6550007 88.4000014,15.73 88.12,15.73 L85.48,15.73 L91.12,1.16 L94.58,1.16 L100.22,15.73 Z M90.86,10.16 L94.84,10.16 L93.5,6.17 C93.4133329,5.9166654 93.3116672,5.61833505 93.195,5.275 C93.0783328,4.93166495 92.9633339,4.560002 92.85,4.16 C92.7433328,4.5666687 92.6333339,4.9433316 92.52,5.29 C92.4066661,5.6366684 92.3000005,5.9366654 92.2,6.19 L90.86,10.16 Z M106.66,10.19 L106.66,15.73 L103.28,15.73 L103.28,10.19 L98,1.16 L100.98,1.16 C101.273335,1.16 101.506666,1.22833265 101.68,1.365 C101.853334,1.50166735 101.993333,1.6766656 102.1,1.89 L104.16,6.13 C104.326667,6.4700017 104.479999,6.7833319 104.62,7.07 C104.760001,7.3566681 104.883333,7.6399986 104.99,7.92 C105.09,7.6333319 105.209999,7.3466681 105.35,7.06 C105.490001,6.7733319 105.639999,6.463335 105.8,6.13 L107.84,1.89 C107.88,1.8033329 107.935,1.7166671 108.005,1.63 C108.075,1.5433329 108.155,1.46500035 108.245,1.395 C108.335,1.32499965 108.438333,1.26833355 108.555,1.225 C108.671667,1.18166645 108.799999,1.16 108.94,1.16 L111.94,1.16 L106.66,10.19 Z M110.54,14.16 C110.54,13.9199988 110.585,13.6966677 110.675,13.49 C110.765,13.2833323 110.888333,13.1033341 111.045,12.95 C111.201667,12.7966659 111.386666,12.6750005 111.6,12.585 C111.813334,12.4949995 112.046665,12.45 112.3,12.45 C112.546668,12.45 112.776666,12.4949995 112.99,12.585 C113.203334,12.6750005 113.389999,12.7966659 113.55,12.95 C113.710001,13.1033341 113.835,13.2833323 113.925,13.49 C114.015,13.6966677 114.06,13.9199988 114.06,14.16 C114.06,14.4000012 114.015,14.624999 113.925,14.835 C113.835,15.045001 113.710001,15.2266659 113.55,15.38 C113.389999,15.5333341 113.203334,15.6533329 112.99,15.74 C112.776666,15.8266671 112.546668,15.87 112.3,15.87 C112.046665,15.87 111.813334,15.8266671 111.6,15.74 C111.386666,15.6533329 111.201667,15.5333341 111.045,15.38 C110.888333,15.2266659 110.765,15.045001 110.675,14.835 C110.585,14.624999 110.54,14.4000012 110.54,14.16 L110.54,14.16 Z M119.56,15.73 L116.16,15.73 L116.16,1.16 L119.56,1.16 L119.56,15.73 Z M136.64,8.44 C136.64,9.4933386 136.458335,10.4733288 136.095,11.38 C135.731665,12.2866712 135.220003,13.0749966 134.56,13.745 C133.899997,14.4150033 133.105005,14.9399981 132.175,15.32 C131.244995,15.7000019 130.213339,15.89 129.08,15.89 C127.946661,15.89 126.913338,15.7000019 125.98,15.32 C125.046662,14.9399981 124.248337,14.4150033 123.585,13.745 C122.921663,13.0749966 122.408335,12.2866712 122.045,11.38 C121.681665,10.4733288 121.5,9.4933386 121.5,8.44 C121.5,7.3866614 121.681665,6.4066712 122.045,5.5 C122.408335,4.5933288 122.921663,3.80667 123.585,3.14 C124.248337,2.47333 125.046662,1.9500019 125.98,1.57 C126.913338,1.1899981 127.946661,1 129.08,1 C130.213339,1 131.244995,1.19166475 132.175,1.575 C133.105005,1.95833525 133.899997,2.48333 134.56,3.15 C135.220003,3.81667 135.731665,4.6033288 136.095,5.51 C136.458335,6.4166712 136.64,7.3933281 136.64,8.44 L136.64,8.44 Z M133.18,8.44 C133.18,7.7199964 133.086668,7.07166955 132.9,6.495 C132.713332,5.91833045 132.445002,5.430002 132.095,5.03 C131.744998,4.629998 131.316669,4.3233344 130.81,4.11 C130.303331,3.8966656 129.72667,3.79 129.08,3.79 C128.426663,3.79 127.845003,3.8966656 127.335,4.11 C126.824997,4.3233344 126.395002,4.629998 126.045,5.03 C125.694998,5.430002 125.426668,5.91833045 125.24,6.495 C125.053332,7.07166955 124.96,7.7199964 124.96,8.44 C124.96,9.1666703 125.053332,9.81833045 125.24,10.395 C125.426668,10.9716696 125.694998,11.459998 126.045,11.86 C126.395002,12.260002 126.824997,12.5649989 127.335,12.775 C127.845003,12.9850011 128.426663,13.09 129.08,13.09 C129.72667,13.09 130.303331,12.9850011 130.81,12.775 C131.316669,12.5649989 131.744998,12.260002 132.095,11.86 C132.445002,11.459998 132.713332,10.9716696 132.9,10.395 C133.086668,9.81833045 133.18,9.1666703 133.18,8.44 L133.18,8.44 Z" id="HACKADAY.IO-Copy-2" fill="#FFFFFF" filter="url(#filter-1)" sketch:type="MSShapeGroup"></path>
    </g>
</svg>