<?xml version="1.0" encoding="UTF-8"?>
<svg width="355px" height="48px" viewBox="0 0 355 48" version="1.1" xmlns="http://www.w3.org/2000/svg" xmlns:xlink="http://www.w3.org/1999/xlink">
    <title>NXP_Community</title>
    <g id="Page-1" stroke="none" stroke-width="1" fill="none" fill-rule="evenodd">
        <g id="NXP_Community" fill-rule="nonzero">
            <g id="Logo">
                <polygon id="Path" fill="#7BB1DB" points="61.24 0 59.17 0 51.54 12.25 43.9 0 41.82 0 41.82 36.84 43.9 36.84 51.54 24.6 59.17 36.84 61.27 36.84 61.24 36.81"></polygon>
                <polygon id="Path" fill="#958437" points="41.82 0 30.5 0 41.81 18.43 30.5 36.84 41.82 36.84"></polygon>
                <polygon id="Path" fill="#739833" points="72.57 0 61.24 0 61.24 36.81 61.27 36.84 72.57 36.84 61.27 18.43"></polygon>
                <path d="M88.73,0 L72.57,0 L61.27,18.43 L72.57,36.84 L72.57,36.84 L72.57,28.71 L91.7,28.71 C99.7,28.71 102.13,22.41 102.13,16.92 L102.13,12.6 C102.11,5.38 99.5,0 88.73,0 Z M91.55,14.84 C91.55,17.03 90.55,19.55 87.88,19.55 L72.59,19.55 L72.59,9.14 L86.89,9.14 C90.32,9.14 91.54,10.56 91.54,13.05 L91.55,14.84 Z" id="Shape" fill="#C9D200"></path>
                <polygon id="Path" fill="#FFB500" points="41.81 18.43 30.5 0 30.49 0 30.49 22.27 11.33 0 0 0 0 36.84 11.34 36.84 11.33 14.58 30.5 36.84"></polygon>
            </g>
            <g id="EditableText" transform="translate(119.000000, 0.000000)" fill="#64798A">
                <g id="Group">
                    <path d="M31,30.17 C30.3938308,31.0684378 29.6783468,31.8880533 28.87,32.61 C27.9991599,33.4012964 27.0273822,34.0738069 25.98,34.61 C24.8581322,35.1741437 23.6777303,35.613441 22.46,35.92 C21.1522162,36.2478938 19.8082317,36.4091719 18.46,36.4 C16.0610378,36.4203494 13.6818424,35.9649034 11.46,35.06 C7.22105213,33.3480806 3.86280924,29.9826157 2.16,25.74 C1.25045453,23.4775891 0.795133137,21.0582694 0.82,18.62 C0.79512357,16.1784864 1.25042149,13.7558937 2.16,11.49 C3.87066332,7.2525695 7.22625417,3.88976233 11.46,2.17 C13.6824639,1.26826369 16.0616863,0.816211428 18.46,0.84 C20.6230674,0.848126456 22.7647104,1.26898817 24.77,2.08 C26.9104835,2.93305334 28.7775647,4.35410956 30.17,6.19 L27.17,8.44 C26.7688315,7.8348103 26.2878239,7.28652886 25.74,6.81 C25.1068722,6.25119615 24.4084647,5.77104104 23.66,5.38 C22.8606132,4.9597923 22.0193405,4.6246239 21.15,4.38 C20.2879205,4.13405449 19.396455,4.0062217 18.5,4 C16.4933734,3.96928719 14.5040713,4.37533684 12.67,5.19 C11.0071892,5.94656732 9.51922934,7.03955383 8.3,8.4 C7.09687405,9.74282867 6.16324955,11.3045278 5.55,13 C4.27009779,16.603045 4.27009779,20.536955 5.55,24.14 C6.1585998,25.8556623 7.09231063,27.4378777 8.3,28.8 C9.5225162,30.1542758 11.0098352,31.2433881 12.67,32 C14.5024836,32.8196143 16.4928937,33.2258901 18.5,33.19 C19.3915594,33.1883296 20.2813862,33.1113896 21.16,32.96 C22.050759,32.7950416 22.9174542,32.5195804 23.74,32.14 C24.6074261,31.7416207 25.4124753,31.2195176 26.13,30.59 C26.9359925,29.8723084 27.6362795,29.0440842 28.21,28.13 L31,30.17 Z" id="Path"></path>
                    <g transform="translate(34.000000, 2.000000)">
                        <path d="M23.79,22.34 C23.8071964,23.9459265 23.5081817,25.5395389 22.91,27.03 C22.3433707,28.4230621 21.5074006,29.6906102 20.45,30.76 C19.3784681,31.82423 18.1029451,32.6609731 16.7,33.22 C15.1690183,33.8228794 13.5352642,34.1217783 11.89,34.1 C10.264442,34.1190913 8.65083553,33.8201495 7.14,33.22 C4.29182789,32.1019766 2.03802343,29.8481721 0.92,27 C0.321818332,25.5095389 0.0228036398,23.9159265 0.04,22.31 C0.0217591646,20.7072254 0.320835812,19.1166814 0.92,17.63 C1.48187798,16.2344414 2.31843366,14.9660054 3.38,13.9 C4.45704737,12.8378399 5.73538181,12.0014828 7.14,11.44 C8.65022171,10.8366799 10.2638021,10.5343459 11.89,10.55 C13.5359238,10.5314035 15.1697009,10.8337032 16.7,11.44 C19.533743,12.5606581 21.7802066,14.7998867 22.91,17.63 C23.5130688,19.1260221 23.8122182,20.7271514 23.79,22.34 Z M20.3501678,22.34 C20.3567956,21.1512881 20.1571647,19.9704206 19.76,18.85 C19.3816332,17.8086207 18.8042357,16.8508201 18.06,16.03 C17.3118345,15.2292514 16.4107522,14.5865927 15.41,14.14 C13.1657134,13.2283516 10.6542866,13.2283516 8.41,14.14 C7.40429277,14.5694606 6.49856058,15.2027921 5.75,16 C5.01851471,16.8248444 4.45165149,17.7820625 4.08,18.82 C3.27526141,21.0839472 3.27526141,23.5560528 4.08,25.82 C4.44705712,26.8600898 5.01441879,27.8181496 5.75,28.64 C6.481527,29.4507098 7.37834091,30.0951883 8.38,30.53 C10.6242866,31.4416484 13.1357134,31.4416484 15.38,30.53 C16.3848046,30.0905217 17.2872412,29.4468971 18.03,28.64 C18.7784439,27.8223176 19.3563727,26.8636357 19.73,25.82 C20.1378205,24.7049767 20.3476434,23.5272611 20.3501678,22.34 Z" id="Shape"></path>
                        <path d="M27.62,16.13 C27.62,15.3 27.62,14.47 27.55,13.64 C27.48,12.81 27.44,11.99 27.38,11.16 L30.77,11.16 L30.77,14.55 L30.87,14.55 C31.6031823,13.2521729 32.7116995,12.2064019 34.05,11.55 C35.2879866,10.9116276 36.6572483,10.5693122 38.05,10.55 C38.6976058,10.5576116 39.343342,10.6211815 39.98,10.74 C40.6783249,10.870494 41.3527164,11.106531 41.98,11.44 C42.6537894,11.8028376 43.2594535,12.2799249 43.77,12.85 C44.381915,13.5351701 44.8601523,14.3288405 45.18,15.19 C45.8024757,13.7750973 46.8513002,12.5899256 48.18,11.8 C49.4810582,10.9933849 50.9792283,10.5608877 52.51,10.55 C55.3833333,10.55 57.5033333,11.3066667 58.87,12.82 C60.3241094,14.6535988 61.0377593,16.9658244 60.87,19.3 L60.87,33.5 L57.72,33.5 L57.72,20.5 C57.8298473,18.6840287 57.413169,16.8749502 56.52,15.29 C55.73,14.08 54.24,13.47 52.08,13.47 C51.0364696,13.429512 50.0009832,13.6676739 49.08,14.16 C48.3511886,14.6292503 47.7389986,15.2585405 47.29,16 C46.7804358,16.7966899 46.4148739,17.6767464 46.21,18.6 C45.9896885,19.584768 45.8790152,20.5908895 45.88,21.6 L45.88,33.5 L42.72,33.5 L42.72,20.5 C42.8277963,18.6854275 42.414928,16.8778274 41.53,15.29 C40.73,14.0766667 39.2466667,13.47 37.08,13.47 C36.6399424,13.5072169 36.2024982,13.570663 35.77,13.66 C34.9859805,13.833868 34.2553754,14.1940254 33.64,14.71 C32.797257,15.4217826 32.1155125,16.3046417 31.64,17.3 C30.9759222,18.8025258 30.6711942,20.4391549 30.75,22.08 L30.75,33.53 L27.6,33.53 L27.62,16.13 Z" id="Path"></path>
                        <path d="M66.43,16.13 C66.43,15.3 66.43,14.47 66.36,13.64 C66.29,12.81 66.26,11.99 66.19,11.16 L69.59,11.16 L69.59,14.55 L69.68,14.55 C70.4190414,13.256773 71.5259509,12.2125188 72.86,11.55 C74.0979866,10.9116276 75.4672483,10.5693122 76.86,10.55 C77.5108918,10.5580729 78.1599098,10.6216365 78.8,10.74 C79.4983249,10.870494 80.1727164,11.106531 80.8,11.44 C81.4753834,11.8004028 82.0814473,12.2778051 82.59,12.85 C83.2051264,13.5441052 83.6835224,14.3482177 84,15.22 C84.6207614,13.8040006 85.6700032,12.6183574 87,11.83 C88.2968875,11.0222812 89.7921799,10.5896156 91.32,10.58 C94.1933333,10.58 96.3133333,11.3366667 97.68,12.85 C99.1555693,14.6749255 99.8909038,16.9880167 99.74,19.33 L99.74,33.53 L96.58,33.53 L96.58,20.53 C96.6877963,18.7154275 96.274928,16.9078274 95.39,15.32 C94.59,14.1066667 93.1066667,13.5 90.94,13.5 C89.8961502,13.4560815 88.8597717,13.6944486 87.94,14.19 C87.1950046,14.6429964 86.5651809,15.2625513 86.1,16 C85.5935758,16.797189 85.2313861,17.6772761 85.03,18.6 C84.8015997,19.5835844 84.6875112,20.5902481 84.69,21.6 L84.69,33.5 L81.54,33.5 L81.54,20.5 C81.6498473,18.6840287 81.233169,16.8749502 80.34,15.29 C79.54,14.0766667 78.06,13.47 75.9,13.47 C75.4566032,13.5069398 75.015815,13.5703866 74.58,13.66 C73.797773,13.838939 73.0683059,14.1985354 72.45,14.71 C71.607257,15.4217826 70.9255125,16.3046417 70.45,17.3 C69.7900551,18.8035623 69.488788,20.4399904 69.57,22.08 L69.57,33.53 L66.41,33.53 L66.43,16.13 Z" id="Path"></path>
                        <path d="M121.4,33.53 C121.34,32.92 121.3,32.33 121.28,31.74 C121.26,31.15 121.28,30.55 121.28,29.94 L121.18,29.94 C120.821417,30.5649199 120.369547,31.1314441 119.84,31.62 C119.285415,32.1338063 118.667001,32.5740905 118,32.93 C117.325775,33.298344 116.610965,33.5869529 115.87,33.79 C115.147679,33.9944656 114.400701,34.0987733 113.65,34.1 C110.78,34.1 108.65,33.35 107.29,31.83 C105.811788,30.0064982 105.076117,27.6923469 105.23,25.35 L105.23,11.16 L108.39,11.16 L108.39,23.54 C108.379575,24.6467956 108.476698,25.7519864 108.68,26.84 C108.835915,27.7059663 109.177025,28.5280419 109.68,29.25 C110.147424,29.9094351 110.792418,30.4226557 111.54,30.73 C112.475839,31.0947277 113.476205,31.2648579 114.48,31.23 C114.930002,31.192959 115.377439,31.1295164 115.82,31.04 C116.658264,30.8709985 117.44776,30.5155542 118.13,30 C119.037832,29.313796 119.779507,28.4319891 120.3,27.42 C121.027655,25.9353068 121.37147,24.2918741 121.3,22.64 L121.3,11.16 L124.45,11.16 L124.45,28.61 C124.45,29.21 124.45,29.98 124.52,30.9 C124.59,31.82 124.63,32.7 124.69,33.53 L121.4,33.53 Z" id="Path"></path>
                        <path d="M132.92,11.16 C132.98,11.76 133.02,12.36 133.04,12.95 C133.06,13.54 133.04,14.14 133.04,14.74 L133.14,14.74 C133.504612,14.12219 133.955864,13.5598091 134.48,13.07 C135.02686,12.5573685 135.634769,12.1140321 136.29,11.75 C136.966206,11.3858593 137.680528,11.0974473 138.42,10.89 C139.14333,10.6903703 139.889653,10.586154 140.64,10.58 C143.506667,10.58 145.626667,11.3366667 147,12.85 C148.475569,14.6749255 149.210904,16.9880167 149.06,19.33 L149.06,33.53 L145.9,33.53 L145.9,21.15 C146.021658,19.1627278 145.574165,17.1819637 144.61,15.44 C143.75,14.1066667 142.156667,13.44 139.83,13.44 C139.67,13.44 139.23,13.51 138.49,13.63 C137.652758,13.8077067 136.864404,14.1660494 136.18,14.68 C135.267402,15.372063 134.522315,16.2606991 134,17.28 C133.271531,18.7644135 132.927673,20.408056 133,22.06 L133,33.53 L129.85,33.53 L129.85,16.08 C129.85,15.48 129.85,14.71 129.78,13.79 C129.71,12.87 129.67,11.99 129.61,11.16 L132.92,11.16 Z" id="Path"></path>
                        <path d="M159.16,2.55 C159.17679,3.17751374 158.917214,3.78075458 158.45,4.2 C157.573893,5.06412651 156.166107,5.06412651 155.29,4.2 C154.816799,3.78427142 154.552964,3.17965035 154.57,2.55 C154.552964,1.92034965 154.816799,1.31572858 155.29,0.9 C156.17044,0.0465030613 157.56956,0.0465030613 158.45,0.9 C158.917214,1.31924542 159.17679,1.92248626 159.16,2.55 L159.16,2.55 Z M158.45,33.55 L155.29,33.55 L155.29,11.16 L158.45,11.16 L158.45,33.55 Z" id="Shape"></path>
                    </g>
                    <path d="M211.12,16 L204.67,16 L204.67,29.22 C204.655085,29.8946585 204.735889,30.5680247 204.91,31.22 C205.028681,31.6759457 205.258929,32.0952032 205.58,32.44 C205.855969,32.7229465 206.200473,32.9296491 206.58,33.04 C207.007337,33.1527725 207.448083,33.206604 207.89,33.2 C208.454226,33.195253 209.015497,33.1179521 209.56,32.97 C210.109019,32.8210931 210.63915,32.609712 211.14,32.34 L211.28,35.26 C209.938473,35.8338185 208.488544,36.1101578 207.03,36.07 C206.392689,36.0655698 205.758191,35.9849986 205.14,35.83 C204.48142,35.6680136 203.868949,35.3566458 203.35,34.92 C202.77151,34.4360787 202.309992,33.8275576 202,33.14 C201.618598,32.1874192 201.441444,31.1653736 201.48,30.14 L201.48,16 L196.74,16 L196.74,13.16 L201.48,13.16 L201.48,6.85 L204.63,6.85 L204.63,13.16 L211.08,13.16 L211.12,16 Z" id="Path"></path>
                    <path d="M224.45,31.66 L231.29,13.16 L235.11,13.16 L223.92,41.36 C223.370974,42.8952811 222.501751,44.2962637 221.37,45.47 C220.144859,46.5577602 218.534729,47.1088784 216.9,47 C216.42,47 215.9,47 215.44,47 C214.943211,46.9706883 214.452386,46.8765574 213.98,46.72 L214.32,43.66 C215.062426,44.025398 215.882872,44.2039052 216.71,44.18 C217.69787,44.230462 218.658506,43.8469382 219.34,43.13 C220.076696,42.2413978 220.642867,41.2243256 221.01,40.13 L222.63,35.83 L213.46,13.17 L217.46,13.17 L224.45,31.66 Z" id="Path"></path>
                </g>
            </g>
        </g>
    </g>
</svg>